/* XPM */
static char * ErrorSignal_xpm[] = {
"16 16 6 1",
" 	c None",
".	c #BA6401",
"+	c #D73901",
"@	c #F60D00",
"#	c #FF0000",
"$	c #C55301",
"     .+@@+.     ",
"   .########.   ",
"  $##########$  ",
" .############. ",
" ############## ",
".##############.",
"+##############+",
"@##############@",
"@##############@",
"+##############+",
".##############.",
" ############## ",
" .############. ",
"  $##########$  ",
"   .########.   ",
"     .+@@+.     "};
